<svg data-v-423bf9ae="" xmlns="http://www.w3.org/2000/svg" viewBox="0 0 335.50296071689223 185" class="iconAbove"><!----><!----><!----><g data-v-423bf9ae="" id="ad038858-a4ab-4bc3-8636-e5f85e874a19" fill="#ffffff" transform="matrix(5.917160119482044,0,0,5.917160119482044,-4.9112375677589455,105.23536336864247)"><path d="M7.34 3.28C6.87 3.36 6.37 3.39 5.53 3.39L0.84 3.39L0.84 3.42C1.23 3.64 1.58 4.12 1.58 5.49L1.58 11.02C1.58 12.17 1.18 12.85 0.83 13.09L0.83 13.12L4.26 13.12L4.26 13.09C3.89 12.85 3.50 12.18 3.50 11.02L3.50 8.79L4.83 8.79C5.53 8.79 6.17 9.20 6.36 9.80L6.38 9.80L6.83 7.28C6.41 7.36 5.74 7.39 4.73 7.39L3.50 7.39L3.50 4.79L5.07 4.79C6.16 4.79 7.06 5.08 7.56 5.91L7.59 5.89ZM13.61 13.33C14.78 13.33 15.88 13.05 16.59 12.80L16.93 10.29L16.90 10.28C16.17 11.23 15.26 11.84 13.75 11.84C11.80 11.84 10.77 10.32 10.77 8.18C10.77 6.02 11.96 4.66 13.93 4.66C15.01 4.66 16.03 5.08 16.60 5.98L16.63 5.96L16.41 3.54C15.60 3.30 14.84 3.19 13.94 3.19C10.75 3.19 8.68 5.17 8.68 8.32C8.68 11.19 10.58 13.33 13.61 13.33ZM18.09 13.12L21.92 13.12C25.38 13.12 27.02 11.31 27.02 8.25C27.02 5.19 25.09 3.39 22.15 3.39L18.09 3.39L18.09 3.42C18.45 3.65 18.84 4.45 18.84 5.49L18.84 11.02C18.84 12.17 18.44 12.85 18.09 13.09ZM20.76 11.73L20.76 4.77L21.99 4.77C24.00 4.77 24.95 5.88 24.95 8.25C24.95 10.50 23.94 11.73 22.06 11.73ZM35.98 10.82L33.92 5.05C33.63 4.23 33.91 3.65 34.17 3.42L34.17 3.39L30.46 3.39L30.46 3.42C30.73 3.64 31.00 4.23 30.72 5.05L28.71 10.82C28.34 11.90 27.73 12.75 27.36 13.09L27.36 13.12L30.30 13.12L30.30 13.09C30.10 12.91 29.96 12.33 30.32 11.37L30.45 11.03L34.06 11.03L34.19 11.37C34.54 12.33 34.43 12.91 34.19 13.09L34.19 13.12L37.35 13.12L37.35 13.09C36.96 12.77 36.36 11.90 35.98 10.82ZM32.21 5.25L32.27 5.25C32.41 6.33 32.76 7.27 33.08 8.18L33.60 9.66L30.91 9.66L31.43 8.18C31.75 7.27 32.09 6.33 32.21 5.25ZM47.94 3.28C47.47 3.36 46.97 3.39 46.13 3.39L41.44 3.39L41.44 3.42C41.83 3.64 42.18 4.12 42.18 5.49L42.18 11.02C42.18 12.17 41.78 12.85 41.43 13.09L41.43 13.12L44.86 13.12L44.86 13.09C44.49 12.85 44.10 12.18 44.10 11.02L44.10 8.79L45.43 8.79C46.13 8.79 46.77 9.20 46.96 9.80L46.98 9.80L47.43 7.28C47.01 7.36 46.34 7.39 45.33 7.39L44.10 7.39L44.10 4.79L45.67 4.79C46.76 4.79 47.66 5.08 48.16 5.91L48.19 5.89ZM54.21 13.33C55.38 13.33 56.48 13.05 57.19 12.80L57.53 10.29L57.50 10.28C56.77 11.23 55.86 11.84 54.35 11.84C52.40 11.84 51.37 10.32 51.37 8.18C51.37 6.02 52.56 4.66 54.53 4.66C55.61 4.66 56.63 5.08 57.20 5.98L57.23 5.96L57.01 3.54C56.20 3.30 55.44 3.19 54.54 3.19C51.35 3.19 49.28 5.17 49.28 8.32C49.28 11.19 51.18 13.33 54.21 13.33Z"></path></g><!----><g data-v-423bf9ae="" id="733f23d1-ef7b-4180-a03c-5eef337d0db2" transform="matrix(1.1111111111111112,0,0,1.1111111111111112,124.74177773793538,0.4675556288825149)" stroke="none" fill="#54555C"><path d="M41.695-.208c3.905 0 7.07 2.972 7.07 6.645 0 3.669-3.165 6.641-7.07 6.641-3.905 0-7.07-2.972-7.07-6.641 0-3.673 3.165-6.645 7.07-6.645zM29.587 15.196s51.915-1.771 54.08 6.105c1.213 4.381-18.675 3.941-31.122 3.811l-.244 20.001-6.605 30.925S31.792 103.09 24.998 99.091c0 0-5.779-3.551 9.715-25.91l2.283-14.92s-10.731 14.92-15.872 12.447c0 0-10.291-3.621 7.621-25.339l.252-18.541S6.251 47.593 2.96 45.877c0 0-11.999-.89 26.415-30.453"></path><path d="M18.761 58.388s-3.047 6.574-1.079 10.259c0 0-10.628.188-8.786-6.26 0 0 .661-3.424 9.865-3.999zM2.582 81.629c4.834 0 8.763 4.07 8.763 9.078 0 5.022-3.928 9.085-8.763 9.085-4.842 0-8.763-4.062-8.763-9.085 0-5.008 3.921-9.078 8.763-9.078z"></path></g><!----></svg>